<svg xmlns="http://www.w3.org/2000/svg" xmlns:xlink="http://www.w3.org/1999/xlink" width="1366" zoomAndPan="magnify" viewBox="0 0 1024.5 576" height="768" preserveAspectRatio="xMidYMid meet" version="1.0"><defs><clipPath id="dc09bb0b7b"><path d="M 0 0.140625 L 1024 0.140625 L 1024 575.859375 L 0 575.859375 Z M 0 0.140625 " clip-rule="nonzero"/></clipPath><clipPath id="027b131cbf"><path d="M 663 0.140625 L 1024 0.140625 L 1024 575.859375 L 663 575.859375 Z M 663 0.140625 " clip-rule="nonzero"/></clipPath><clipPath id="f956b1f621"><path d="M 962.253906 -184.34375 L 1438.789062 292.191406 L 970.734375 760.242188 L 494.199219 283.707031 Z M 962.253906 -184.34375 " clip-rule="nonzero"/></clipPath><clipPath id="7196cb2ef4"><path d="M 962.253906 -184.34375 L 1438.789062 292.191406 L 970.734375 760.242188 L 494.199219 283.707031 Z M 962.253906 -184.34375 " clip-rule="nonzero"/></clipPath><clipPath id="9f6e9218c0"><path d="M 731 0.140625 L 1024 0.140625 L 1024 575.859375 L 731 575.859375 Z M 731 0.140625 " clip-rule="nonzero"/></clipPath><clipPath id="c9d29c1ed0"><path d="M 1019.96875 -168.261719 L 1480.070312 291.84375 L 1027.917969 743.992188 L 567.816406 283.890625 Z M 1019.96875 -168.261719 " clip-rule="nonzero"/></clipPath><clipPath id="58e2d428e5"><path d="M 1019.96875 -168.261719 L 1480.070312 291.84375 L 1027.917969 743.992188 L 567.816406 283.890625 Z M 1019.96875 -168.261719 " clip-rule="nonzero"/></clipPath><clipPath id="fe6d9dd83f"><path d="M 806 0.140625 L 1024 0.140625 L 1024 575.859375 L 806 575.859375 Z M 806 0.140625 " clip-rule="nonzero"/></clipPath><clipPath id="60283c044e"><path d="M 1077.050781 -139.378906 L 1508 291.570312 L 1084.472656 715.097656 L 653.523438 284.148438 Z M 1077.050781 -139.378906 " clip-rule="nonzero"/></clipPath><clipPath id="77bf51ef80"><path d="M 1077.050781 -139.378906 L 1508 291.570312 L 1084.472656 715.097656 L 653.523438 284.148438 Z M 1077.050781 -139.378906 " clip-rule="nonzero"/></clipPath></defs><g clip-path="url(#dc09bb0b7b)"><path fill="#ffffff" d="M 0 0.140625 L 1024 0.140625 L 1024 575.859375 L 0 575.859375 Z M 0 0.140625 " fill-opacity="1" fill-rule="nonzero"/><path fill="#f4fdfc" d="M 0 0.140625 L 1024 0.140625 L 1024 575.859375 L 0 575.859375 Z M 0 0.140625 " fill-opacity="1" fill-rule="nonzero"/></g><g clip-path="url(#027b131cbf)"><g clip-path="url(#f956b1f621)"><g clip-path="url(#7196cb2ef4)"><path fill="#c0e5f7" d="M 1191.460938 521.25 C 1112.648438 618.289062 957.796875 618.734375 859.988281 587.277344 C 829.515625 577.472656 766.660156 556.308594 719.457031 495.484375 C 671.769531 434.023438 667.765625 367.757812 665.03125 322.460938 C 661.695312 267.136719 654.902344 154.617188 732.230469 62.019531 C 815.042969 -37.132812 968.273438 -82.207031 1085.003906 -29.277344 C 1144.003906 -2.53125 1176.664062 41.542969 1191.460938 62.019531 C 1268.222656 168.214844 1251.019531 293.910156 1241.78125 361.449219 C 1231.578125 436.003906 1225.679688 479.121094 1191.460938 521.25 Z M 1191.460938 521.25 " fill-opacity="1" fill-rule="nonzero"/></g></g></g><g clip-path="url(#9f6e9218c0)"><g clip-path="url(#c9d29c1ed0)"><g clip-path="url(#58e2d428e5)"><path fill="#94caf9" d="M 1241.371094 513.308594 C 1165.246094 607.042969 1015.664062 607.472656 921.1875 577.085938 C 891.753906 567.617188 831.035156 547.171875 785.441406 488.417969 C 739.375 429.050781 735.511719 365.042969 732.867188 321.285156 C 729.644531 267.847656 723.085938 159.15625 797.777344 69.710938 C 877.773438 -26.0625 1025.78125 -69.601562 1138.539062 -18.472656 C 1195.53125 7.363281 1227.078125 49.9375 1241.371094 69.714844 C 1315.519531 172.292969 1298.902344 293.707031 1289.976562 358.949219 C 1280.121094 430.964844 1274.425781 472.613281 1241.371094 513.308594 Z M 1241.371094 513.308594 " fill-opacity="1" fill-rule="nonzero"/></g></g></g><g clip-path="url(#fe6d9dd83f)"><g clip-path="url(#60283c044e)"><g clip-path="url(#77bf51ef80)"><path fill="#469cff" d="M 1284.4375 499.046875 C 1213.128906 586.847656 1073.015625 587.25 984.519531 558.789062 C 956.949219 549.917969 900.078125 530.769531 857.367188 475.734375 C 814.21875 420.125 810.597656 360.167969 808.121094 319.179688 C 805.101562 269.125 798.957031 167.316406 868.925781 83.53125 C 943.855469 -6.179688 1082.496094 -46.964844 1188.113281 0.929688 C 1241.496094 25.128906 1271.046875 65.007812 1284.4375 83.535156 C 1353.890625 179.621094 1338.324219 293.347656 1329.964844 354.457031 C 1320.734375 421.917969 1315.398438 460.929688 1284.4375 499.046875 Z M 1284.4375 499.046875 " fill-opacity="1" fill-rule="nonzero"/></g></g></g></svg>